
<svg xmlns="http://www.w3.org/2000/svg" version="1.1" xmlns:xlink="http://www.w3.org/1999/xlink" preserveAspectRatio="none" x="0px" y="0px" width="190px" height="190px" viewBox="0 0 190 190">
<defs>
<g id="___3_0_Layer0_0_FILL">
<path fill="#3399FF" stroke="none" d="
M 158.15 80.4
Q 158.15 46.7 134.85 23.35 111.75 0 79.3 0 58.05 0 39.6 10.8 21.1 21.5 10.6 39.75 0 58 0 79.8 0 112.45 22.6 136.2 45.45 159.75 79.65 159.75 100.1 159.75 107.75 154.3 106.45 172.65 95.95 191 120.25 172.65 135.65 147.75 158.15 111.25 158.15 80.4
M 116.85 74.75
Q 117.2 77.35 117.2 80.15 117.2 85.4 115.95 90.45 113.5 100.65 106.1 108.2 98.4 116.1 88 118.45 86.95 118.6 85.8 118.85 82.75 119.35 79.45 119.35 79.2 119.35 78.95 119.35 66.5 119.2 56.35 111.7 55.65 111.15 55 110.65 46 103.35 42.9 92.8 42.05 89.95 41.65 87 41.45 86.2 41.45 85.4 41.1 82.9 41.1 80.3 41.1 74.7 42.3 69.7 44 62.7 47.95 57 49.75 54.2 52.15 51.9 57.4 46.55 63.95 43.65 66.95 42.4 70.3 41.65 71.4 41.4 72.5 41.25 75.5 40.75 78.8 40.75 79 40.75 79.3 40.75 92.15 40.75 101.9 48.45 104.1 50.15 106.1 52.25 112.6 58.9 115.3 67.3 116.15 70.1 116.65 73.1 116.75 73.95 116.85 74.75 Z"/>
</g>
</defs>

<g transform="matrix( 0.968536376953125, 0, 0, 0.968536376953125, 18.45,2.5) ">
<g transform="matrix( 1, 0, 0, 1, 0,0) ">
<g transform="matrix( 1, 0, 0, 1, 0,0) ">
<use xlink:href="#___3_0_Layer0_0_FILL"/>
</g>
</g>
</g>
</svg>
