
<svg xmlns="http://www.w3.org/2000/svg" version="1.1" xmlns:xlink="http://www.w3.org/1999/xlink" preserveAspectRatio="none" x="0px" y="0px" width="2560px" height="1440px" viewBox="0 0 2560 1440">
<defs>
<g id="Layer0_0_FILL">
<path fill="#F0DDE9" stroke="none" d="
M 1036.2 1067.85
Q 1029.9 1067.45 1026.45 1068.1 1022.8 1068.7 1017.7 1071.25 1006.9 1076.45 1001.3 1085.45 995.75 1094.5 997.1 1104.45 997.55 1107.15 999.8 1112.6 1002.25 1118.2 1005.2 1123.15 1011.5 1133.6 1012.45 1140.45 1013.3 1147.1 1009.25 1151.8 995.1 1167.75 932.35 1163.45 921 1162.7 912.8 1162.55 904.4 1162.25 904.05 1162.8 903.6 1163.2 903.35 1175.95 903.05 1189 903.05 1206.1
L 903.05 1248.6 907.75 1258.05
Q 913.5 1269.65 921.15 1270.95 928.8 1272.2 942.5 1263.75 952.15 1257.7 958.6 1256.1 964.9 1254.4 971.65 1256.2 984.2 1259.65 990.7 1268.9 997.3 1278.2 997.3 1292.45 997.3 1318.75 976.05 1327.85 968.6 1330.9 962.65 1329.8 956.65 1328.6 943.3 1321.75 933.65 1316.9 929.1 1315.3 924.5 1313.7 921.55 1314.2 916.85 1315.1 912.15 1320.15 907.4 1325.25 905.4 1331.55 903.55 1337.7 902.7 1363.15 901.85 1388.55 903.05 1405.55
L 904.2 1423.1 1164.7 1423.1 1165.7 1406.75
Q 1168.75 1362.25 1164.45 1339.55 1160.05 1317.05 1148.2 1314.35 1144.95 1313.6 1140.65 1315.05 1136.2 1316.45 1125.75 1321.75 1111.95 1328.85 1105.7 1329.8 1099.6 1330.7 1091.85 1327.15 1075.4 1319.6 1071.55 1300.6 1067.65 1281.75 1079.55 1267.15 1084.7 1261.15 1090.35 1258.45 1096.1 1255.7 1103.85 1255.5 1109.3 1255.5 1113 1256.8 1116.9 1258.1 1124.4 1262.75 1135.95 1269.85 1142.7 1270.75 1149.25 1271.8 1154.6 1267.3 1156.7 1265.55 1159.15 1261.85 1161.6 1258.1 1162.7 1254.85 1165.35 1247.15 1166.3 1227.45 1167.3 1207.45 1166.05 1184.7
L 1164.85 1161.45 1150.2 1162.8
Q 1133.85 1164.15 1110.5 1163.9 1087.15 1163.6 1080.05 1161.95 1070.8 1159.65 1065.5 1156.8 1060.15 1153.85 1058.15 1149.8 1055.2 1144.25 1056.2 1139.5 1057.15 1134.7 1063.55 1123.15 1068.45 1114.2 1069.95 1109.85 1071.45 1105.45 1071.3 1100.25 1071.2 1086.4 1061.75 1077.7 1052.25 1069.05 1036.2 1067.85
M 819.2 534.25
Q 819.9 522.15 814.5 512.15 808.65 501.25 797.65 496.65 790.55 493.7 784.4 494.35 778.15 494.95 769.95 499.3 758.45 505.65 754.95 507.25 753.05 508.35 749.75 509.1 746.6 509.8 744 509.8 731.6 509.45 726.65 489.3 721.75 469.05 724.1 428.5 725.4 402.45 724.6 401.7 724.2 401.3 716 400.6 707.5 399.75 696.45 399.15 626.3 394.6 618.25 414.35 615.95 419.65 617.2 424.8 618.5 429.85 624.65 440.5 630.7 450.75 631.95 458 633.3 465.35 630.35 473 625 487 608.7 492.75 592.45 498.5 578.1 491.4 558.55 481.35 558.55 461.55 558.55 455.9 559.9 452.1 561.05 448.4 565.45 441 568.6 435.85 570.85 430.6 573.05 425.5 573.4 422.25 573.9 417.45 573.2 415.35 572.45 413.25 569.15 409.95 563.5 404.3 553.05 401.8 542.7 399.35 522.3 398.85 497.15 398.5 490.25 399
L 464.95 401.55 466.15 417.05
Q 468.35 447.8 466.75 469.3 465.15 490.9 459.9 500.85 457.2 506 451.75 508.45 446.1 510.85 440.7 509.25 438.6 508.7 433.95 506.3 429.3 504.05 424.85 501.35 418 497.15 414.4 496.05 410.75 494.95 404.1 494.95 394 494.95 387.25 499.25 380.4 503.45 375.8 512.8 368.6 527.4 372.85 543.25 377.05 559.1 389.95 565.75 398.7 570.2 406.8 569.05 414.9 567.85 427.2 560.35 444.05 550.05 453.25 555.65 462.45 561.2 466 583.8 467.25 591.4 467 622.15 466.75 652.85 465.3 659.85 464.95 662.1 480.5 663.3 496.1 664.4 520.6 663.9 541.35 663.45 547.4 662.85 553.8 662.1 559.75 659.5 572.05 654 573.4 646.35 574.65 638.7 565.95 622.75 560.5 612.9 559.45 609.25 558.4 605.55 558.9 598.65 559.55 589.25 564.1 582.85 568.65 576.45 577.75 572.35 589.3 567 601.05 568.7 612.75 570.4 621.6 578.55 626.9 583.35 629.85 589.6 632.75 595.85 632.75 602.5 632.75 604.3 630.2 610.35 627.75 616.35 624.15 623.4 617.15 637 616.65 642.65 616.1 648.35 621.25 653.75 627.1 660 638.3 661.75 649.6 663.55 682.8 663.55 699.25 663.55 711.9 663.2 724.05 662.95 724.45 662.55 725.45 661.75 723.95 634.7 721.65 592.75 727 572.9 732.3 553.1 745.85 553.1 747.4 553.1 752.45 555.3 757.4 557.4 763.25 560.55 775.8 567.25 781.25 568.6 786.5 569.9 793.9 568.1 805.4 565.25 812.3 555.4 818.6 546.3 819.2 534.25 Z"/>

<path fill="#CAECFC" stroke="none" d="
M 144.3 1063.8
Q 135.65 1066.4 128.65 1072.3 121.65 1078.15 119.2 1084.7 116.4 1091.9 117.7 1099.15 118.95 1106.2 124.95 1117.25 134.45 1134.6 131.85 1142.9 129.25 1151.15 112.6 1156.2 104.8 1158.65 79.75 1159.15 54.6 1159.65 36.9 1157.7
L 24.6 1156.55 24.6 1418.05 283.9 1418.05 284.75 1414.35
Q 285.75 1410.05 286.95 1382.65 288.2 1348.4 284.35 1331.4 280.4 1314.2 270.25 1310.3 265.65 1308.55 262.5 1309.4 259.45 1310.2 246.65 1316.7 232.4 1323.9 225.75 1324.9 219.1 1325.9 210.75 1322.1 198.45 1316.55 193.4 1301.3 188.25 1285.95 194.05 1272.05 198.25 1261.9 205.85 1256.5 213.45 1251.15 223.55 1251.15 229.05 1251.15 233.35 1252.55 237.7 1254.1 246.15 1258.7 258.65 1265.55 264.7 1266.15 270.6 1266.65 275.85 1261.6 280.9 1256.5 283.6 1246.3 286.2 1236.1 287.1 1219.1 287.65 1205.6 286.55 1182.35 285.35 1159 284.1 1157.7 283.25 1156.9 255.95 1158.75 225 1160.85 205.35 1157.8 185.8 1154.75 179.7 1146.95 175.7 1141.85 176.5 1135.45 177.35 1129.05 183.45 1118.95 189.25 1109.1 190.85 1101 192.35 1092.8 189.85 1085.2 185.95 1073.35 171.65 1066.6 157.4 1059.95 144.3 1063.8
M 2281.15 22
L 2280.3 25.7
Q 2278.5 32.8 2278.1 60.85 2277.6 88.95 2279.1 98.55 2280.9 110.2 2282.8 115.35 2284.75 120.45 2289.05 125.2 2293.85 130.5 2300.8 130 2307.7 129.5 2318.75 123 2329.8 116.35 2338.4 115.15 2346.7 114 2354.65 117.95 2363.85 122.6 2368.8 131.35 2373.8 140.05 2373.85 151.85 2374.05 160.6 2370.75 168.45 2367.4 176.3 2361.2 181.7 2352.8 189.1 2342.25 188.95 2331.8 188.65 2318.4 180.65 2298.65 168.95 2289.15 178.2 2279.6 187.5 2277.95 220.1 2277.45 232.35 2278.6 256.95 2279.85 281.5 2280.95 282.35 2281.2 282.5 2289.8 282.1 2299.25 281.65 2310.15 281 2343.2 279.05 2361.9 282.35 2380.7 285.6 2386.35 294.3 2392.4 303.4 2381.1 322.1 2373.7 334.45 2373.55 344.9 2373.45 355.4 2380.6 363.6 2386.7 370.45 2393.85 373.65 2401 376.75 2410.65 376.75 2420.25 376.75 2427.4 373.65 2434.55 370.45 2440.65 363.6 2447.95 355.25 2447.7 344.8 2447.4 334.35 2439.45 320.95 2430.6 306.2 2433.15 297.75 2435.6 289.35 2450.25 284 2455.4 282.15 2463.15 281.55 2470.8 281 2490.7 281 2523.15 281 2531.7 282.15
L 2540.45 283.5 2540.45 22 2281.15 22 Z"/>

<path fill="#CAEADC" stroke="none" d="
M 485.35 1157.9
Q 473.55 1158.65 470.2 1159.25
L 465.1 1160.1 466.45 1179.15
Q 467.9 1198.1 467 1220.2 466.15 1242.45 463.6 1250.45 459.05 1265.1 450.35 1267.55 441.7 1270.1 426.5 1261.1 409.5 1250.85 396.15 1253.75 382.85 1256.6 375.6 1272.05 366.75 1291 375.5 1308.95 384.3 1327 402.4 1327.35 409.5 1327.5 413.8 1326 418.1 1324.45 428.35 1318.4 441.2 1311.05 448.45 1312.25 455.75 1313.45 460.9 1323.65 465.1 1331.8 466.45 1346.15 467.9 1360.4 467 1385.85 465.8 1416.6 465.45 1418.7 465.35 1419.75 494.45 1420.3 524.2 1420.85 595.45 1421.1
L 725.8 1421.4 724.75 1400.85
Q 723.95 1382.55 723.1 1374.2 722.35 1367.9 723.95 1351.7 725.45 1335.45 727.45 1329 729.75 1321.2 734.4 1316.55 739 1311.85 744.5 1311.85 748.65 1311.85 753.35 1313.85 757.9 1315.8 769.95 1322.6 781 1329.1 793.4 1326.5 805.85 1323.95 812.3 1313.85 820.8 1300.95 819.25 1286.05 817.85 1271 807.05 1260.9 798.6 1252.8 789 1252.75 779.4 1252.65 765.05 1260.4 752.4 1267.4 745.95 1268 739.35 1268.6 734.05 1263.25 720.45 1249.45 724.25 1187.25 725.55 1160.9 724.6 1160.25 723.6 1159.25 707.4 1158.15 691.15 1157.05 675.05 1156.9 650.5 1156.65 636.15 1160.75 621.85 1164.8 618.4 1173.05 616.1 1178.4 617.35 1183.5 618.65 1188.65 624.95 1199.35 631.2 1210 632.3 1217.6 633.4 1225.1 629.85 1232.9 622.15 1250.35 601.35 1253.25 580.55 1256 566.8 1241.5 562.4 1236.95 560.55 1231.9 558.7 1226.85 558.7 1219.45 558.7 1214.8 560.15 1210.75 561.55 1206.7 565.6 1199.7 574.2 1185.05 573.45 1177.05 572.7 1168.95 562.25 1163.6 553.3 1159 534.9 1157.65 516.65 1156.2 485.35 1157.9
M 143.45 311.85
Q 134.6 314.1 127.35 319.95 120.05 325.85 117.5 332.75 114.65 340.35 115.8 348.1 117 355.75 122.55 365.1 125.6 370.25 127.9 375.55 130.05 380.95 130.3 384 131 388.7 130.25 390.75 129.55 392.85 126.3 396.15 119.45 402.9 108 405.1 96.45 407.25 68.45 407.1 55.2 407.1 43.4 406.7 31.95 406.25 29.35 405.75
L 22.9 404.55 22.9 665.75 63.05 665.4
Q 97.35 665.3 108.9 667.25 120.55 669.3 126.45 676.35 131.1 681.9 130.5 687.8 129.8 693.7 123.25 705.85 115.4 720.3 115.55 730.5 115.65 740.6 123.75 749.2 137.25 763.6 158.25 760.85 179.2 757.95 186.8 740.75 190.5 732.4 189.35 724.5 188.25 716.5 181.75 705.55 172.55 690.1 175.15 681.5 177.7 672.9 193.05 668.1 199.1 666.35 208.05 665.8 217.5 665.3 242.45 665.55
L 282.4 665.75 283.6 654.6
Q 284.1 649.8 284.5 638.5 284.95 626.7 284.95 615.5 284.95 592.25 282.8 581.35 280.7 570.3 274.8 563.4 269.85 557.6 263 558.1 256.1 558.6 242.6 565.9 233 571.3 229.2 572.4 225.6 573.5 219.2 573 208.3 572.1 200.45 564.5 193.15 557.4 190.45 546.6 187.65 535.85 190.5 525.3 193.65 513.9 202.3 506.25 210.65 498.9 221.1 499.15 231.55 499.5 244.95 507.4 255 513.4 261.4 514.15 267.9 515 272.8 510.95 280.65 504.9 283.65 485 286.6 465.1 284.6 433.4 282.75 405.85 282.25 405.6 281.8 405.15 264.05 406.4 219.7 410.2 197.15 405 174.65 399.75 174.65 385.7 174.65 378.75 182.25 365.3 190.1 350.85 189.75 341.45 189.4 331.9 180.75 322.45 174.9 315.9 163.6 312.75 152.4 309.55 143.45 311.85 Z"/>

<path fill="#D5D7EC" stroke="none" d="
M 36.9 775
L 26.3 776 26.3 1037 30.15 1037
Q 33.05 1037.25 57.3 1038.5 77.55 1039.8 95.1 1038.6 112.8 1037.4 120.35 1034.3 123.35 1033.1 126.7 1030.85 130.05 1028.5 131.85 1026.4 136.15 1021.15 135.4 1015 134.6 1008.7 128.45 998.75 122.55 989.1 120.8 982.7 119.05 976.3 120.55 969.75 122 963.15 124.75 958.75 127.55 954.45 132.85 950.5 148.8 938.7 168.6 944.5 188.4 950.25 193.2 968.05 195.05 974.85 193.55 980.95 192.05 986.95 185.45 999.25 179.05 1010.95 178.45 1016.2 177.8 1021.3 182.25 1026.55 186.65 1031.85 194.65 1034.65 202.55 1037.4 216.65 1038.5 226.5 1039.35 256.25 1038.5 285.75 1037.7 286.95 1036.5 287.45 1036.25 285.6 1008.35 283.5 977.8 286.45 957.35 289.4 937 296.9 930.8 300.95 927.4 308.3 928.35 315.6 929.25 324.05 934.3 335.45 941.05 341.5 942.75 347.65 944.45 354.55 942.75 362.4 940.75 366.6 937.6 370.85 934.5 374.8 927.9 379.35 920.05 380.7 913 381.95 905.85 380.35 897.75 377.5 884.1 367.45 875.8 357.5 867.55 345.65 868.9 342.6 869.15 337.55 871.2 332.75 873.05 328.25 875.65 314.6 883.75 307.8 884.35 300.95 884.9 294.9 878.35 288.45 871.25 286.05 850.35 283.6 829.55 285.75 800.1 287.3 776.5 286.8 776 286.55 775.5 258.8 773.65 225.4 771.35 205.35 775 185.3 778.55 180.55 787.65 177.7 793.05 178.7 797.5 179.65 801.8 186.65 815.45 192.45 826.85 193.65 830.7 194.8 834.6 194.05 839.75 192.45 851.1 184.8 858.6 177.1 866.1 164.4 868.75 150.05 871.7 137.15 864.35 124.15 857 120.9 844.1 119.1 836.7 120.35 831.45 121.7 826 128.45 813.45 134.55 802.3 135.4 797.65 136.3 793.1 133.35 787.65 128.8 778.7 108 774.9 87.25 771.2 54.95 773.45 47.2 773.8 36.9 775 Z"/>

<path fill="#FFF4CB" stroke="none" d="
M 372.75 148.45
Q 372.75 139.8 371.95 136.3 371.1 132.8 367.7 127.2 359.35 113.8 346.4 111.85 333.5 109.85 317.15 119.45 304.25 127.2 296.5 126.3 288.65 125.45 283.75 115.6 279.7 107.3 278.55 94.15 277.25 80.95 278 53.05
L 279.05 16.95 19.55 16.95 19.55 279.65 46 280.8
Q 79.55 282.4 97.35 280.05 115.05 277.6 122.55 270.55 128.05 265.2 127.55 258.45 127.05 251.65 120.35 240.5 112.2 226.6 112.45 216.05 112.6 205.55 121.4 196 133.8 182.25 154.95 185.4 176.1 188.6 183.45 205.3 187.15 213.65 185.95 221.55 184.85 229.55 178.35 240.5 163.7 265.15 180.55 274.3 197.45 283.5 252.55 280.8
L 279.05 279.65 278 243.7
Q 277.2 215.15 278.45 202.25 279.8 189.25 284.45 180.15 289.05 170.95 296.55 170.45 304 169.95 318.65 177.95 326.85 182.35 331.4 183.95 336 185.55 340.25 185.55 348.4 185.55 355.75 181.25 363 177.05 367.7 169.55 371.1 164.15 371.95 160.6 372.75 157.15 372.75 148.45
M 1302.25 927.4
Q 1306.9 917.2 1305.15 904.15 1303.3 891.05 1296.05 883.05 1292.3 879 1285.65 876.25 1278.9 873.45 1272.75 873.45 1268.2 873.45 1263.75 875.05 1259.25 876.6 1251.2 881.05 1238.8 887.8 1232.4 888.45 1225.9 889.15 1221 884.25 1214.15 877.4 1212.4 866.35 1210.65 855.25 1210.7 820.85
L 1210.9 779.4 1186.25 778.2
Q 1151.55 776.4 1133.25 779.05 1115.05 781.55 1107.7 789.15 1104.65 792.25 1104 794.45 1103.3 796.65 1103.8 801.45 1104.65 808.9 1111.25 819.65 1115.7 826.75 1116.7 830.3 1117.8 833.9 1117.8 841.6 1117.8 849.2 1116.95 852.15 1116.15 855.1 1112.6 859.45 1099.95 875.4 1077.75 873.6 1067.8 872.8 1059.9 867.9 1051.55 862.75 1047.65 854.25 1043.9 846.05 1044.65 839.15 1045.5 832.3 1051.4 821.55 1058.4 808.9 1059.75 803.75 1061.1 798.5 1058.8 793.2 1054.5 782.85 1033.5 779.55 1012.35 776.25 964.4 778.55
L 952.6 779.2 952.6 822.55
Q 952.6 854 952 861.25 951.5 868.25 948.55 874.8 942.95 887.05 935.4 888.45 927.8 890 913.8 881.55 906.7 877.4 902.35 875.9 897.95 874.4 891.9 873.95 885.25 873.45 882.2 874.2 879.25 874.9 874 878.2 857.85 888.55 857.85 910.55 857.75 932.45 873.85 942.75 882.7 948.3 890.95 947.8 899.2 947.2 912.3 940.05 928.15 931.45 935.55 932.7 942.95 933.9 948.55 946.3 951.5 952.95 952 959.95 952.6 967.1 952.6 998.55
L 952.6 1041.7 977.05 1042.9
Q 1027.1 1045.45 1045 1038.7 1058.15 1033.7 1059.75 1025.8 1061.35 1017.7 1052.25 1001.1 1045.65 989.1 1044.8 982.2 1043.9 975.4 1047.65 966.85 1051.9 957.6 1060.9 952.45 1069.95 947.3 1082.05 947.3 1091.1 947.3 1099.2 951.1 1107.3 954.9 1112.6 961.65 1115.7 965.5 1116.9 968.8 1118 972 1118.3 978.5 1118.75 985.9 1117.75 989.1 1116.8 992.4 1111.75 1000.6 1104.65 1012.2 1103.75 1019.55 1102.8 1026.9 1107.7 1031.95 1114.95 1039.55 1133.35 1042.15 1151.8 1044.65 1186.25 1042.9
L 1210.9 1041.7 1210.7 1000.25
Q 1210.65 965.85 1212.4 954.8 1214.15 943.7 1221 936.85 1225.9 931.95 1232.4 932.65 1238.8 933.3 1251.2 940.05 1263.05 946.55 1271 947.45 1279 948.5 1286.9 944.45 1292.9 941.4 1296.05 937.95 1299.15 934.5 1302.25 927.4 Z"/>

<path fill="#FED2E8" stroke="none" d="
M 679.75 723.9
Q 681.7 714.7 675.6 704.35 669.55 694.05 659.5 689.5 651.95 685.95 641.9 686.3 631.8 686.55 623.95 690.5 617.1 694 613.05 698.45 609 702.9 606.75 709.75 604.2 716.9 605.4 722.65 606.55 728.2 613.3 741.25 620.65 755.7 620.9 761.4 621.05 767.05 614.5 772.65 607.25 778.85 593.15 780.8 579 782.85 548.05 781.9
L 512.3 780.7 511.15 798.25
Q 509.8 818.5 510.8 842.6 511.8 866.65 514.35 873.6 519.3 886.95 527.65 888.8 536.1 890.75 550.6 881.9 560.45 876 567.7 874.4 574.95 872.85 581.8 875.15 593 878.85 599.25 888.3 605.5 897.75 605.55 911.4 605.55 919 604.7 922.5 603.85 926.25 600.85 931.1 595.55 940.2 589.9 943.5 584.15 946.8 573.55 946.8 565.25 946.8 561.7 945.7 558.2 944.6 550.1 939.55 536.35 931.2 528.5 932.8 520.65 934.3 515.2 946.45 512.65 952.2 511.8 958.2 510.95 964.4 510.65 981.2 509.95 1008.35 511.15 1024.7
L 512.3 1042.25 524.3 1040.9
Q 536.1 1039.7 563.4 1039.7 590.45 1039.7 603.45 1043.3 616.35 1046.95 619.9 1055.55 621.9 1060.45 620.5 1065.75 619.05 1070.9 612.8 1081.2 605.15 1094.05 605.05 1104.1 605.05 1114.05 612.65 1123.15 619.4 1131.1 629.85 1134.2 639.6 1137.05 650.15 1135.15 660.6 1133.1 668.2 1126.85 676.3 1120.2 678.75 1110.5 680.5 1103.2 679.25 1097.85 677.9 1092.45 670.8 1079 666 1069.55 664.8 1065.9 663.65 1062.1 664.4 1058.25 665.6 1052.5 671.5 1048.3 677.4 1044 687.35 1041.7 694.9 1039.95 719.6 1039.7 744.3 1039.35 760 1040.9
L 773 1042.25 774.15 1019.15
Q 775.45 996.35 774.4 976.4 773.5 956.65 770.8 949 768.2 941.65 763.1 937.1 758 932.45 752.6 932.45 747.1 932.45 735.4 939.55 727.05 944.5 723.6 945.6 719.85 946.8 711.6 946.8 703.6 946.8 700.65 946.05 697.55 945.2 693.4 941.9 686.05 936.5 682.3 927.3 678.5 918.2 679.25 908.2 680 899.15 682.55 893.6 685.05 887.95 690.85 882.2 707.8 865.8 732.7 880.85 743.05 887.2 748.45 888.65 753.85 890.05 759.15 887.8 769.55 883.5 773.15 861.5 776.8 839.4 774 797.4
L 772.8 781.25 731.35 781.4
Q 696.25 781.55 685.15 779.55 674.1 777.6 667.8 770.1 663.4 764.95 664.25 758.65 665.1 752.3 671.8 740.95 674.6 736.15 676.95 731.15 679.25 726.2 679.75 723.9
M 2293.6 1160.25
Q 2270.2 1161.75 2269.65 1162.25 2269.15 1162.55 2271 1190.45 2273.3 1224.3 2269.75 1244.2 2266.2 1264.2 2257.05 1268.85 2251.7 1271.6 2246.05 1270.35 2240.4 1269.1 2229.4 1262.6 2218.9 1256.25 2210.6 1255.45 2202.3 1254.6 2193.95 1258.9 2188.05 1261.9 2182.4 1270.35 2176.85 1278.7 2175.6 1286.35 2173.65 1298.65 2179.65 1310.75 2185.6 1322.8 2196 1327.35 2203.85 1330.8 2211.35 1329.8 2218.9 1328.75 2228.35 1323.1 2239.85 1316.4 2245.3 1314.95 2250.85 1313.5 2256.2 1316.05 2260.75 1318.25 2263.6 1322.7 2266.4 1327.35 2269.15 1337.1 2271 1343.45 2271.35 1371.15 2271.7 1398.75 2270 1412.5
L 2268.85 1423.1 2530.35 1423.1 2530.35 1292.45
Q 2530.35 1200.05 2529.9 1180.9 2529.5 1161.75 2527.45 1161.75 2526.95 1161.75 2499.65 1160.1 2478.75 1158.8 2461.45 1160 2444.2 1161.2 2436.1 1164.45 2433.15 1165.65 2429.85 1167.9 2426.55 1170.3 2424.8 1172.4 2420.5 1177.6 2421.25 1183.85 2422 1190.1 2428.15 1200.05 2433.7 1209.15 2435.65 1215.45 2437.6 1221.7 2436.6 1227.5 2435 1236.65 2430.1 1242.55 2425.2 1248.35 2415.7 1252.65 2402.3 1258.7 2387.1 1254 2371.95 1249.2 2365.6 1236.8 2364.5 1234.75 2363.65 1230.8 2362.9 1226.85 2362.9 1223.3 2362.85 1218.1 2364.25 1213.8 2365.8 1209.3 2370.65 1200.4 2373.85 1194.55 2376.3 1188.85 2378.6 1183.25 2378.6 1181.5 2378.6 1177.1 2374.05 1172.05 2369.5 1167 2363.25 1164.45 2358.6 1162.6 2342.75 1160.5 2326.9 1158.4 2320.4 1158.75 2306.45 1159.6 2293.6 1160.25 Z"/>

<path fill="#FFD5D3" stroke="none" d="
M 769.9 97.1
Q 772.5 77.75 770.5 47.65
L 768.8 20
Q 768.8 18.65 639 18.65 551.8 18.65 529.9 19.15 508.75 19.55 508 21.35 507.15 23.95 506.8 62.15 506.7 94.5 508.65 105.9 510.6 117.25 517.45 123.85 520.7 126.95 522.9 127.7 525 128.4 529.75 127.9 532.85 127.55 538.25 125.3 543.55 123.1 548.8 119.95 557.05 115 560.35 114.05 563.7 113.05 571.05 113.4 577.55 113.8 580.75 114.9 583.95 116 587.75 119.1 600.3 129.15 601.55 147.1 602.55 160.25 596.9 170.55 591.2 180.85 580.8 184.9 572.75 187.9 565.05 186.65 557.4 185.3 546.95 179 522.25 164.4 513.15 181.25 504 198.1 506.65 253.35
L 507.8 279.65 548.6 279.45
Q 583.5 279.2 595.05 281.15 606.8 283.1 612.7 290.25 617.3 295.65 616.75 301.55 616.05 307.35 609.5 319.4 604.85 328 603.35 332.4 601.9 336.8 601.9 342.2 601.9 357 612.85 366.05 622.8 374.15 637.3 374.55 651.8 375 662.5 367.4 674.3 359.05 675.75 344.2 676.25 338.5 675.05 334.85 673.9 331.15 668.5 321.3 659.4 304.4 660.8 296.5 662.35 288.4 675.6 283 682.65 280.2 689.8 279.7 697.05 279.2 727 279.3
L 768.5 279.45 769.5 268.35
Q 774.65 205.95 766.3 185.9 761.05 173.6 753.15 172.3 745.2 170.95 729 179.65 714.8 187.4 705.35 187.3 695.8 187.25 687.4 179.15 676.65 169.05 675.15 154.2 673.7 139.35 682.15 126.55 690 114.75 702.8 113.4 715.55 111.95 730.7 121.15 741.75 127.7 748.35 128.3 755 128.8 760.4 123.5 767.4 116.45 769.9 97.1
M 1524.45 707.45
Q 1514.85 706.45 1509.75 708.05 1489.2 714.65 1484.3 732.35 1482.45 739.15 1484.25 746.15 1485.9 753.15 1491.9 763.2 1497.4 772.2 1498.65 777.45 1500 782.65 1497.95 787.45 1494.45 795.9 1481.6 799.6 1468.9 803.3 1443.15 803.3 1433.15 803.3 1421.35 802.9 1409.95 802.45 1404.2 801.95
L 1390.4 800.8 1389.2 821.85
Q 1388.1 841.25 1388.9 863.7 1389.7 885.95 1391.75 892.85 1392.65 895.55 1394.85 899.15 1397.15 902.8 1399.5 905.15 1403.4 909.05 1405.5 909.85 1407.5 910.7 1412 910.05 1414.7 909.6 1419.65 907.6 1424.7 905.5 1428.85 902.95 1438.35 897.25 1444.6 895.7 1450.95 894.1 1457.85 895.7 1468.55 898.05 1475.55 906.6 1482.45 915 1483.95 927.4 1485.4 939.7 1479.65 950.7 1473.95 961.7 1463.55 966.35 1455.4 970.05 1449.05 969.05 1442.65 968.05 1429.2 960.95 1419.65 955.9 1415.25 954.4 1410.95 952.85 1407.95 953.35 1397.4 955.65 1392.4 969.4 1389.9 976.55 1388.9 999.05 1387.85 1021.85 1389.2 1042.4
L 1390.4 1061.6 1431.85 1061.6
Q 1459.1 1061.55 1467.8 1061.95 1476.65 1062.45 1482.3 1064.5 1489.8 1067.2 1494.7 1072.05 1499.65 1077.05 1499.65 1081.85 1499.65 1083.6 1497.2 1089.6 1494.7 1095.6 1491.2 1102.1 1487.75 1108.75 1485.3 1114.45 1482.8 1120.3 1482.8 1121.8 1482.8 1131.25 1488.85 1140.35 1494.85 1149.45 1503.85 1153.5 1510.6 1156.55 1520.75 1156.55 1530.95 1156.55 1537.6 1153.5 1546.55 1149.45 1552.6 1140.45 1558.65 1131.35 1558.65 1122 1558.65 1120.45 1556.2 1114.65 1553.8 1108.65 1550.25 1101.9 1546.7 1094.85 1544.35 1089.1 1541.8 1083.1 1541.8 1081.5 1541.8 1076.95 1546.85 1072 1551.9 1067 1559.15 1064.5 1564.8 1062.45 1573.65 1061.95 1582.35 1061.55 1609.6 1061.6
L 1651.05 1061.6 1652.25 1042.75
Q 1653.6 1021.65 1652.6 999 1651.55 976.45 1649.05 969.55 1644.75 958.25 1638.15 954.9 1631.6 951.5 1622.4 955.9 1615.3 959.1 1605.85 964.5 1597.8 968.8 1591.55 969.2 1585.2 969.65 1577.9 966.35 1567 961.45 1561.55 950.6 1556.55 940.5 1557.5 928.6 1558.5 916.6 1565.05 907.85 1572.15 898.25 1583.6 895.7 1590.55 894.1 1596.85 895.7 1603.1 897.25 1612.6 902.95 1616.75 905.5 1621.8 907.6 1626.8 909.6 1629.5 910.05 1633.95 910.7 1635.95 909.85 1638.1 909.05 1641.95 905.15 1644.3 902.8 1646.6 899.15 1648.8 895.55 1649.7 892.85 1651.75 886.25 1652.6 862.4 1653.4 838.55 1652.25 820.2
L 1651.05 800.8 1637.25 801.95
Q 1631.5 802.45 1620.2 802.9 1608.5 803.3 1598.3 803.3 1572.55 803.3 1559.85 799.6 1547.05 795.9 1543.5 787.45 1541.45 782.65 1542.8 777.45 1544.1 772.2 1549.55 763.2 1552 759.05 1554.3 754.15 1556.55 749.2 1557.3 746.35 1560 736.4 1554.95 726.45 1550 716.55 1539.6 711.25 1534.05 708.5 1524.45 707.45 Z"/>

<path fill="#FEF0EF" stroke="none" d="
M 999.65 360.8
Q 1001 366.2 1007.75 378.75 1013.8 389.9 1014.65 394.55 1015.6 399.1 1012.65 404.55 1010.6 408.6 1005.3 411.55 1000 414.45 990.7 416.7 983.65 418.4 960.35 418.65 936.95 418.9 920.6 417.55
L 905.9 416.2 904.75 439.45
Q 903.45 462.25 904.45 482.2 905.4 501.95 908.1 509.6 909.3 512.9 911.65 516.6 914.1 520.3 916.2 522.1 921.5 526.55 927.9 525.55 934.3 524.6 946.2 517.55 953.8 512.9 957.75 511.55 961.45 510.3 966.95 510.3 974.7 510.45 980.5 513.25 986.15 515.95 991.2 521.9 1003.1 536.5 999.25 555.45 995.35 574.5 978.9 581.95 971.05 585.5 965 584.55 958.85 583.65 944.85 576.55 933.4 570.75 929.5 569.55 925.65 568.3 922.1 569.3 917.55 570.75 913.4 575.95 909.2 581.2 907.1 588.35 905.05 595.25 904.3 615.15 903.65 635.2 904.75 654.45
L 905.9 677.35 947.4 677.2
Q 982.55 677.1 992.65 678.7 1002.85 680.4 1009.75 687.3 1013.55 691.1 1014.4 693.2 1015.25 695.35 1014.65 699.65 1014.4 702.25 1012.05 707.9 1009.6 713.45 1006.55 718.5 1001.95 726.1 1000.6 730.05 999.3 733.75 999.3 739.25 999.5 747 1002.25 752.8 1004.95 758.45 1010.95 763.55 1022.9 773.4 1039.2 772.3 1055.35 771.3 1065.25 760 1073.85 750.1 1073.65 740 1073.6 729.9 1064.55 714.95 1056.45 701.25 1058.9 692.95 1061.35 684.8 1074.85 680.05 1080.5 678.15 1089.35 677.6 1098.6 677.1 1124.9 677.2
L 1166.55 677.2 1167.6 665.25
Q 1168.85 650.4 1168.6 625.85 1168.35 600.9 1166.75 593.55 1162.85 574.85 1154.1 570.55 1145.3 566.35 1129.8 575.55 1119.1 581.95 1111.85 583.9 1104.7 585.75 1097.95 583.8 1086.3 580.25 1079.9 570.75 1073.5 561.1 1073.5 547.2 1073.5 532.9 1080.4 523.25 1087.4 513.55 1099.65 510.8 1106.2 509.25 1112.6 511.05 1118.95 512.75 1128.3 518.55 1141.85 526.9 1149.55 525.7 1157.3 524.55 1162.85 513.3 1165.55 507.65 1166.65 502.55 1167.85 497.15 1168.4 486.85 1169.1 474.95 1168.25 446.7 1167.35 418.15 1166.25 417.05 1166.15 416.8 1157.95 417.15 1149.6 417.45 1138.6 418.25 1075.7 422.25 1061.55 406.6 1057.5 401.85 1058.4 395.2 1059.35 388.4 1065.55 377.95 1072.05 366.9 1073.4 359.8 1074.7 352.7 1071.8 344.9 1066.85 332.25 1053 325.85 1039 319.5 1025.3 323.65 1004.95 329.8 1000.15 348.6 998.3 355.4 999.65 360.8
M 1373.4 1157.7
L 1344.55 1160.25 1344.55 1201.9
Q 1344.7 1236.05 1343.2 1246.3 1341.7 1256.45 1335.6 1263.45 1330.3 1269.4 1323.65 1268.9 1317.05 1268.5 1305.25 1261.4 1295.05 1255.35 1288 1253.85 1280.9 1252.2 1274.05 1254.5 1261.7 1258.65 1255.2 1270.1 1249.2 1280.55 1250.15 1293.55 1250.95 1306.5 1258.3 1315.85 1266.25 1326.05 1279.15 1328 1284.35 1328.75 1288.3 1327.6 1292.35 1326.3 1303.9 1320.4 1311 1316.9 1317.25 1314.35 1323.45 1311.85 1325.15 1311.85 1329.35 1311.85 1334.95 1317.8 1340.5 1323.9 1342.5 1330.55 1344.8 1338.55 1344.55 1379.75
L 1344.55 1421.4 1603.5 1421.4 1602.5 1387.2
Q 1601.6 1359.35 1602.95 1345.9 1604.2 1332.15 1608.75 1323.45 1614 1313.1 1621.55 1312.35 1629.15 1311.65 1643.3 1320.1 1653.5 1326.15 1659.4 1327.6 1665.4 1329 1672.8 1327 1679.9 1325.05 1687.05 1318.15 1694.25 1311.15 1696.1 1304.25 1701.55 1284.35 1691.8 1268.65 1682 1253 1664.2 1252.8 1662.45 1252.8 1656.2 1255.35 1649.9 1257.85 1642.8 1261.4 1631.35 1267.25 1627.45 1268.5 1623.6 1269.65 1620.05 1268.65 1615.3 1267.25 1611.3 1261.9 1607.05 1256.6 1604.7 1248.75 1602.6 1241.2 1602.85 1201.2
L 1603.2 1160.4 1595.25 1159.6
Q 1580.6 1157.7 1560 1157.4 1539.6 1156.95 1529.5 1158.4 1503.95 1161.95 1497.9 1170.85 1491.8 1179.8 1502.55 1198 1510.95 1212.25 1510.6 1223.55 1510.3 1234.7 1501 1243.7 1487.25 1257.1 1466.85 1253.3 1446.45 1249.6 1439.15 1232.25 1436.2 1225.15 1436.85 1219 1437.45 1212.75 1441.85 1204.6 1448.15 1193.05 1449.75 1189.6 1454.75 1180.05 1450.25 1172.45 1445.8 1164.8 1432.9 1160.9 1426.15 1158.9 1406.1 1157.8 1385.95 1156.7 1373.4 1157.7 Z"/>

<path fill="#E2E9F5" stroke="none" d="
M 1903.25 1068.85
Q 1891 1072.85 1883.35 1081.5 1868.75 1098.1 1883.85 1123.15 1886.6 1127.8 1888.65 1132.7 1890.75 1137.55 1891.1 1140.85 1891.6 1145.65 1890.9 1147.75 1890.15 1149.9 1886.85 1153.15 1880.15 1159.75 1868.9 1162 1857.55 1164.3 1831.55 1164.15 1801.05 1164.15 1792.45 1162.95
L 1783.7 1161.6 1782.5 1169.7
Q 1782 1173.25 1781.6 1184.85 1781.15 1196.9 1781.15 1209.8 1781.1 1237.2 1783.25 1248.6 1785.45 1260.15 1792.1 1266.8 1795.4 1270.1 1797.5 1270.85 1799.6 1271.55 1804.45 1271 1807.65 1270.7 1812.75 1268.5 1818 1266.2 1823.15 1263.1 1830.05 1258.95 1834 1257.55 1837.9 1256.2 1842.85 1256.2 1857.95 1256.2 1867.25 1266.45 1876.6 1276.75 1876.6 1293.3 1876.6 1305.1 1871.45 1314 1866.2 1323.05 1857.05 1327.15 1848.5 1330.95 1841.7 1330.1 1834.85 1329.2 1822.95 1322.8 1809.55 1315.45 1802.9 1315.1 1796.15 1314.7 1790.6 1320.95 1784.7 1327.75 1782.85 1338.7 1781.1 1349.6 1781.15 1377.6 1781.15 1390.8 1781.6 1402.7 1782 1414.15 1782.5 1416.85
L 1783.7 1423.1 2043 1423.1 2044.2 1413.5
Q 2044.7 1409.35 2045.1 1397.9 2045.55 1386 2045.55 1374.2 2045.7 1349.7 2043.6 1338.65 2041.5 1327.65 2035.4 1320.4 2030.45 1314.6 2023.6 1315.1 2016.7 1315.6 2003.7 1322.8 1991.85 1329.2 1985 1330.1 1978.1 1330.95 1969.5 1327.15 1962.65 1323.95 1957.45 1316.8 1952.2 1309.55 1950.45 1300.7 1949.25 1294.95 1949.45 1291.6 1949.5 1287.9 1951.3 1282.3 1954.8 1269.85 1963.35 1263 1971.75 1256.2 1983.65 1256.2 1988.3 1256.2 1992.35 1257.6 1996.2 1258.95 2003.4 1263.1 2008.5 1266.2 2013.85 1268.5 2019.05 1270.6 2022.25 1271 2027.05 1271.55 2029.2 1270.85 2031.3 1270.1 2034.55 1266.8 2041.15 1260.25 2043.4 1248.95 2045.7 1237.55 2045.55 1211.5 2045.55 1199.35 2045.1 1187.25 2044.7 1175.6 2044.2 1171.4
L 2042.85 1161.75 2034.25 1162.95
Q 2025.7 1164.15 1995.1 1164.15 1976.65 1164.3 1968.9 1163.7 1961 1163.1 1955.15 1161.25 1938.9 1156.35 1935.95 1147.85 1932.9 1139.35 1942.2 1124 1950.1 1110.85 1950.45 1100.4 1950.7 1089.85 1943.35 1081.5 1941.15 1079.05 1937.7 1076.35 1934.15 1073.6 1931.4 1072.25 1925.8 1069.35 1916.95 1068.3 1908.2 1067.25 1903.25 1068.85
M 1607.75 428.85
Q 1607.55 428.5 1579.4 426.65 1508.5 422.2 1500.5 442 1498.4 446.9 1499.75 452.7 1501.1 458.45 1506.55 467.45 1512.15 476.75 1513.75 482.95 1515.25 489.2 1513.65 496.1 1511.3 507.25 1502.45 514.15 1493.5 521.15 1480.25 522.25 1464.35 523.75 1452.1 513.4 1439.8 502.95 1439.8 488.05 1439.8 484.8 1448.25 467.95 1451.75 461.2 1454.2 455.15 1456.65 449.25 1456.65 447.55 1456.65 443.5 1452 438.45 1447.4 433.4 1441.3 431.05 1436.1 428.85 1420.9 426.9 1405.55 424.95 1396.8 425.3 1394.95 425.3 1369.15 426.85 1348 428.45 1347.75 428.85 1347.05 429.5 1348.9 455.5 1351.6 497.4 1346.05 517.55 1343.55 526.3 1340.85 530.35 1338.15 534.4 1333.6 536.25 1328.7 538.25 1323.4 536.85 1318.05 535.3 1307.45 529 1299.85 524.55 1296.05 523.35 1292.25 522.1 1286.2 522.1 1274.25 522 1265.95 529.25 1257.7 536.6 1254.15 550.25 1251.05 563.05 1256.95 576.05 1262.85 589 1274.05 593.9 1282.15 597.45 1289.75 596.25 1297.25 595.2 1308.1 588.7 1319.65 581.7 1325.5 580.75 1331.3 579.85 1336.45 584.15 1345.05 591.3 1348.1 610.25 1351.1 629.05 1348.9 661.2 1347.15 688.25 1347.6 689.15 1348.65 689.75 1373.35 691.55 1413.9 694.55 1435.25 689 1456.65 683.45 1456.65 669.8 1456.65 668.5 1454.2 662.8 1451.7 656.9 1448.25 650.2 1444.75 643.3 1442.35 637.5 1439.8 631.5 1439.8 630.15 1439.9 619.55 1445.95 611.1 1451.75 603.2 1461.3 599.05 1470.9 594.85 1481.35 595.85 1492.5 596.85 1501.7 603.5 1507.85 607.9 1511.1 614.55 1514.3 621.25 1514.3 629.3 1514.3 634.3 1513 638.35 1511.55 642.45 1507.25 649.7 1501.1 660.35 1499.55 667.15 1498.15 674 1501 678.55 1506.75 687.15 1526.65 690.5 1546.55 693.8 1579.25 691.55 1607.2 689.7 1607.55 689.35 1608 688.4 1606.2 661 1599.65 559 1643.8 587 1653.4 593.05 1659.75 595.1 1666.05 597.2 1672.3 596.25 1690.25 593.9 1698.1 576.2 1705.95 558.6 1697.1 540.65 1693.45 533.05 1689 529.15 1684.6 525.3 1676.85 522.75 1670.2 520.65 1663.6 522.1 1657.15 523.5 1647 529.5 1636.4 535.85 1631.1 537 1625.7 538.2 1620.4 535.4 1601.9 526.05 1606.2 457 1608.05 429.2 1607.75 428.85 Z"/>

<path fill="#F2F2F4" stroke="none" d="
M 1301.65 171.2
Q 1309 155.55 1302.5 139 1295.95 122.4 1280.75 118.1 1273.25 116.1 1268.65 117.1 1263.9 118.2 1250.9 124.85 1234.05 133.3 1230.5 133.3 1225.95 133.3 1221 128.3 1216 123.25 1213.5 115.9 1211.45 110.25 1210.95 101.4 1210.55 92.65 1210.65 65.35
L 1210.65 23.7 952.15 23.7 952.35 64.5
Q 952.5 98.05 950.65 110.1 948.8 122.25 942.7 127.9 937.3 133.05 931.6 132.55 925.85 132 912.2 125 898.55 117.95 892.4 116.95 886.15 116 878.3 119.65 865.65 125.45 860.25 138.95 854.8 152.35 859.1 167.5 861.6 176.85 871.25 184.55 880.75 192.2 890.1 192.3 892.3 192.3 898.7 189.85 905.3 187.3 912.2 183.7 927.1 176.2 932.95 176.1 938.75 175.95 944.05 183 949.9 190.45 951.75 204.6 953.6 218.7 952.65 248.95
L 951.65 284.7 962.3 285.7
Q 1001.55 289.4 1025.4 286.7 1049.35 284.1 1056.2 275.25 1060.25 270.35 1059.3 263.8 1058.3 257.3 1051.95 245.6 1045.4 233.6 1044.55 226 1043.7 218.5 1047.75 209.85 1054.75 195.5 1073.4 191.9 1092 188.25 1104.9 198.7 1112.75 205.05 1115.3 209.85 1117.75 214.55 1117.75 223.15 1117.75 230.05 1116.65 233.75 1115.45 237.5 1111.15 244.55 1105.15 254.6 1103.8 262.85 1102.45 271.1 1106.1 275.25 1121.95 293.1 1200.5 285.7
L 1210.65 284.7 1210.65 243.2
Q 1210.55 216.75 1211.05 207.45 1211.55 198.6 1213.5 192.95 1218.2 179.5 1226.4 177.05 1234.65 174.6 1248.4 182.7 1252.7 185.3 1258 187.75 1263.25 190.2 1266.25 190.95 1276.8 193.75 1286.6 188.35 1296.35 182.85 1301.65 171.2
M 2084.05 791.5
Q 2081.35 791 2069.65 790.6 2057.5 790.15 2043.9 790.15 2023.2 790.1 2014.85 790.6 2006.5 791.2 2000.6 793.05 1985.15 797.75 1982.1 806.1 1979 814.55 1987.6 828.95 1994.45 840.4 1996.05 846.5 1997.65 852.55 1995.85 859.65 1992.25 874.95 1977.8 882.05 1964.65 888.4 1949.4 884.6 1934.15 880.8 1927.6 869.4 1921.6 859.05 1922.35 851.1 1923.1 843.2 1931.3 829.45 1933.75 825.4 1935.65 820.6 1937.7 815.7 1938.05 812.95 1938.7 808.45 1937.95 806.45 1937.25 804.4 1934 801.1 1928 795.15 1917.55 792.8 1906.9 790.4 1884.6 790 1873.95 789.75 1862.1 790 1850.35 790.15 1844.6 790.65 1830.7 791.95 1829.95 792.7 1829.1 793.3 1830.95 816.15 1832.5 835.95 1831.75 854 1830.9 872 1828.1 881.4 1823.45 897.05 1814.8 899.85 1806.2 902.6 1790.85 893.35 1779.8 886.8 1771.45 885.6 1763 884.4 1755.1 888.45 1743.7 894.3 1738.5 907.25 1733.25 920.25 1737.05 933.3 1739.15 940.75 1744.2 947.4 1749.2 954.05 1754.95 957.1 1756.85 958 1760.75 958.7 1764.8 959.45 1768.25 959.45 1773.75 959.45 1778.05 958 1782.4 956.5 1790.85 951.85 1803.3 945.05 1809.4 944.5 1815.3 943.95 1820.5 949.15 1826.6 955.25 1828.95 966.45 1831.3 977.65 1831.3 1000.75 1831.4 1011.3 1831.05 1023.6 1830.65 1034.8 1830.1 1040.55
L 1828.8 1053.5 1850.2 1054.7
Q 1872.35 1055.95 1893.45 1054.95 1914.6 1054.05 1922 1051.35 1925.3 1050.25 1929 1047.8 1932.7 1045.35 1934.5 1043.25 1938.95 1037.95 1937.95 1031.5 1937 1025.1 1929.95 1013.25 1925.3 1005.65 1923.95 1001.75 1922.7 997.95 1922.7 992.5 1922.95 977.8 1933.4 968.65 1943.75 959.45 1959.95 959.45 1973 959.6 1982.9 966.6 1992.85 973.7 1995.85 984.9 1997.8 991.75 1996.3 997.7 1994.85 1003.7 1988.8 1014.05 1982.05 1025.45 1981.2 1031.75 1980.35 1038.1 1984.75 1043.25 1991.05 1050.65 2002.1 1052.7 2013.05 1054.7 2047.6 1054.7 2088.6 1054.35 2089.25 1053.7 2090.1 1053.1 2088.25 1024.5 2083.2 944.25 2109.35 944.25 2111.45 944.25 2117 946.45 2122.3 948.65 2128.4 951.85 2143.55 960.1 2154 959.6 2164.45 959.2 2173.05 949.85 2180.65 941.75 2183 931.95 2185.35 922.2 2182.35 911.55 2177.55 895.1 2164.3 888.65 2156.45 884.6 2149.1 885.5 2141.8 886.35 2129.75 892.85 2116.75 900 2109.85 900.5 2103 901 2098.05 895.2 2092.05 888.1 2089.95 877.15 2087.85 866.05 2087.9 842.25 2087.9 812.35 2089.25 803.15
L 2090.45 792.7 2084.05 791.5 Z"/>

<path fill="#D7E5E6" stroke="none" d="
M 1655.5 34.5
L 1654.3 16.95 1393.65 16.95 1392.45 38.2
Q 1391.2 60.35 1392.2 81.45 1393.2 102.6 1395.85 110 1398.2 116.85 1403.25 121.75 1408.3 126.55 1412.85 126.55 1414.65 126.55 1420.6 124 1426.35 121.55 1433.1 118.1 1439.5 114.65 1445.5 112.15 1451.2 109.7 1452.85 109.7 1467 109.7 1477.35 121 1487.75 132.25 1487.75 147.6 1487.75 164.05 1475.85 175.75 1463.95 187.5 1450.15 184.7 1447.85 184.2 1442.9 181.95 1437.9 179.55 1433.1 176.8 1421.7 170.05 1415.4 169.2 1409.05 168.35 1403.95 172.75 1396.5 179.05 1394.5 190.1 1392.45 201.05 1392.45 235.65 1392.8 276.75 1393.65 277.45 1394.5 278.3 1421.3 276.75 1454.95 274.85 1473.3 277.7 1491.85 280.55 1498.7 288.75 1503.15 293.95 1502.55 299.1 1501.9 304.35 1495.5 316.05 1488.9 328.35 1487.4 334.35 1485.85 340.4 1487.75 347.25 1491.5 361.4 1506.25 368.5 1521.1 375.5 1537.15 370.7 1544.2 368.55 1551.3 361.6 1558.35 354.6 1560.4 347.75 1562.4 340.75 1560.75 333.65 1558.95 326.5 1552.65 315.9 1546.5 305.45 1545.75 299.6 1544.95 293.9 1549.1 288.9 1550.8 286.8 1554.25 284.45 1557.55 282.15 1560.55 280.8 1568.5 277.7 1586.35 276.6 1604.05 275.5 1626.65 276.75 1653.3 278.3 1654.5 277.45 1654.9 276.95 1655.15 264.7 1655.5 252.05 1655.5 235.65 1655.5 195 1653.3 187.4 1651.2 180.35 1645.55 174.5 1640 168.7 1635.4 168.7 1633.5 168.7 1627.5 171.15 1621.35 173.65 1614.85 177.1 1608.2 180.6 1602.45 183 1596.65 185.55 1595.15 185.55 1585.95 185.55 1577.7 180.35 1569.4 175.2 1565.1 166.65 1556.2 148.95 1564 131.1 1571.95 113.15 1589.9 110.35 1595.15 109.6 1599.1 110.8 1603.15 112.05 1614.7 117.95 1621.75 121.5 1628 124 1634.25 126.55 1635.95 126.55 1639.9 126.55 1645.45 120.75 1651.1 114.9 1652.95 108.85 1655 102.45 1655.8 77.05 1656.65 51.85 1655.5 34.5 Z"/>

<path fill="#D9D9D9" stroke="none" d="
M 2427.25 713.05
Q 2420.5 706.55 2412.15 704.2 2404.2 701.8 2399.35 701.8 2394.5 701.8 2386.5 704.2 2374.7 707.9 2367.65 718.5 2360.55 729.15 2362.55 740.1 2363.1 742.6 2365.35 747.5 2367.65 752.75 2370.35 757.1 2376.4 767.4 2377.65 772.95 2378.95 778.6 2376.25 783.75 2371.4 793.05 2351.55 796.55 2331.55 800.2 2297.65 797.9 2286.3 797.15 2277.85 796.85 2269.6 796.5 2269.35 796.75 2268.75 797.35 2267.8 832.65 2266.8 866.35 2269.25 880.6 2271.6 894.8 2279.45 902.1 2283.85 906.25 2290.35 905.4 2296.8 904.5 2306.95 898.4 2315.1 893.45 2318.75 892.35 2322.45 891.15 2330.55 891.15 2341 891.15 2346.8 894.35 2352.45 897.55 2357.7 906.35 2364.75 918.45 2362.85 932.55 2360.9 946.55 2350.75 955.9 2341.6 964.5 2331.9 964.5 2322.3 964.6 2307.95 956.05 2291.15 946.1 2282 950.5 2272.8 954.9 2269 974.8 2267.65 982.1 2267.4 1004.8 2267.15 1027.5 2268.3 1043.05
L 2269.5 1056.9 2309.3 1056.55
Q 2342.4 1056.45 2353.7 1058.1 2364.95 1059.7 2372 1065.65 2378.4 1070.95 2378.1 1078.15 2377.65 1085.3 2370.15 1097.7 2365.35 1105.6 2364 1109.6 2362.65 1113.45 2362.75 1118.75 2363 1139.35 2383.3 1148.6 2398.8 1155.7 2415.35 1148.7 2431.7 1141.6 2435.9 1126.2 2437.95 1118.85 2436.5 1112.85 2435.05 1106.95 2428.85 1096.7 2421.75 1085.05 2421.4 1077.95 2421 1070.8 2427.3 1065.65 2434.4 1059.7 2445.7 1058.1 2457.1 1056.45 2490.35 1056.55
L 2530.35 1056.9 2530.35 795.4 2522.4 796.4
Q 2516.75 797.25 2492.4 798.6 2463.9 800.05 2445.8 796.15 2427.5 792.2 2423.1 783.75 2420.5 778.7 2421.6 773.05 2422.75 767.4 2428.35 758.15 2434.4 748.1 2436.15 741.1 2437.95 734 2436.1 727.1 2433.9 719.5 2427.25 713.05
M 2172.25 123.35
Q 2164.3 118.8 2155.1 119.95 2145.95 121.05 2134.65 127.9 2123.5 134.55 2116.85 135.05 2110.2 135.55 2105.15 130.1 2091.4 115.6 2095 57.4
L 2096.55 25.4 1967.05 25.4
Q 1837.4 25.4 1836.7 26.05 1835.85 26.9 1837.4 45.95 1838.8 64.9 1837.9 87 1837.05 109.35 1834.5 117.1 1833.5 120.55 1831.4 124.35 1829.3 128.25 1827.45 130.1 1822.2 135.4 1816.05 134.9 1809.75 134.3 1796.75 127.2 1786.9 121.75 1783.25 120.75 1779.55 119.65 1772.65 120.15 1766.85 120.55 1763.55 121.65 1760.25 122.85 1756.45 125.85 1744.05 136 1742.8 153.7 1741.55 170.9 1751 182.45 1760.4 194 1775.7 194 1780.65 194 1784.55 192.65 1788.5 191.3 1795.55 187.05 1800.8 183.95 1806.1 181.75 1811.5 179.5 1814.65 179.15 1819.35 178.65 1821.45 179.3 1823.65 180.05 1826.95 183.2 1833.1 189.1 1835.35 199.7 1837.65 210.25 1837.7 233.6 1837.7 259.25 1837.05 274.05
L 1836.35 287.55 1853.9 288.9
Q 1872.7 290.4 1896.15 289.5 1919.4 288.55 1927.4 286.05 1941.6 281.55 1943.8 272.3 1945.95 263.05 1936.55 247.1 1932.4 240 1930.95 236.05 1929.6 232.15 1929.6 227.2 1929.6 212.3 1940.05 202.9 1950.45 193.55 1966.85 193.65 1981.3 193.65 1991.5 202.1 2001.6 210.4 2003.1 223.5 2003.8 229.4 2002.6 233.2 2001.45 237.25 1995.55 248.6 1992 255.45 1989.45 261.1 1986.95 266.65 1986.95 267.65 1986.95 271.55 1990.4 276.25 1993.85 281 1998.55 283.35 2007 287.65 2021.4 289 2035.65 290.35 2062.65 289.4 2095.6 288.15 2096 287.75 2096.7 287.05 2095.2 260.4 2093.35 227.95 2096.1 207.9 2098.9 187.9 2106.15 182.2 2111.3 178.15 2117.85 179 2124.35 179.75 2134.45 185.7 2149.4 194.55 2160.5 193.8 2171.55 193.15 2180.65 182.85 2192.7 169.2 2190 150.5 2187.4 131.75 2172.25 123.35 Z"/>

<path fill="#FFE7D1" stroke="none" d="
M 2254.85 539.3
Q 2251.65 538.95 2246.5 536.75 2241.25 534.5 2236.1 531.35 2226.45 525.65 2218.6 524.55 2210.5 523.45 2202.75 526.8 2194.4 530.35 2189 538.5 2184 546.3 2182.95 556.25 2180.4 578.25 2195.3 591.4 2203.65 598.7 2214.45 598.65 2225.15 598.45 2237.3 590.9 2241.85 588.1 2246.75 586.15 2251.55 584.2 2254.85 583.8 2259.65 583.3 2261.75 584.05 2263.85 584.7 2267.15 588 2274.65 595.6 2277.45 616.6 2280.15 637.6 2277.75 668.6 2277 677.6 2276.9 684.55 2276.85 691.45 2277.45 692.05 2278 692.65 2289.75 693.15 2301.05 693.55 2317.4 693.7 2350.7 693.9 2361.65 692.1 2372.7 690.25 2379.75 683.6 2383.8 679.65 2384.65 677.7 2385.5 675.7 2384.85 671.15 2384.4 668.2 2382.45 663.3 2380.45 658.25 2377.9 654.1 2369.05 639.2 2369.5 628.45 2369.9 617.75 2379.75 608.4 2392.35 596.35 2411.4 598.55 2430.45 600.75 2438.8 615.15 2444.1 624.25 2443.5 632.6 2442.9 640.95 2436.1 652.4 2427.55 666.75 2428.1 674.35 2428.6 681.9 2438.45 687.5 2446.8 692.2 2460.55 693.65 2474.35 695.05 2501.35 694.05 2515.25 693.65 2524.95 693.15 2534.95 692.55 2535.55 692.05 2536.25 691.6 2536.65 654.85 2537.1 617.35 2537.1 560.85
L 2537.1 430.55 2519.05 429.5
Q 2486.6 427.5 2467.2 428.95 2447.65 430.45 2438.45 435.6 2428.6 441.15 2428.1 448.75 2427.55 456.35 2436.1 470.65 2442.9 482.15 2443.5 490.45 2444.1 498.8 2438.8 507.9 2430.45 522.15 2411.4 524.35 2392.35 526.55 2379.75 514.65 2369.9 505.3 2369.5 494.6 2369.05 483.9 2377.9 469 2386.5 454.4 2384.15 445.6 2381.7 436.75 2367.95 432.4 2360.7 430.1 2333 429.25 2305.15 428.35 2288.4 429.85
L 2276.6 430.85 2277.45 446.9
Q 2279.45 486.45 2277.1 506.9 2274.75 527.5 2267.15 535.05 2263.85 538.35 2261.75 539.1 2259.65 539.8 2254.85 539.3 Z"/>

<path fill="#E6E5ED" stroke="none" d="
M 1947.55 382.8
Q 1955.9 369.1 1955.85 358.45 1955.75 347.9 1947.25 339.15 1941.4 333.25 1935.7 330.8 1929.95 328.35 1920.6 327.7 1913.7 327.25 1910.05 327.95 1906.25 328.55 1901.05 331.05 1891.7 335.6 1887.2 342 1882.8 348.4 1882.15 358.55 1881.65 366.2 1882.55 369.6 1883.5 372.8 1888.55 381.3 1897.65 396.75 1896.5 404.8 1895.2 412.85 1883 418.4 1876.65 421.35 1869.5 421.85 1862.25 422.45 1831.05 422.45
L 1787.9 422.45 1786.7 441
Q 1784.6 479.7 1787.4 500.35 1790.2 521.05 1798.5 528 1802.75 531.45 1810.05 530.2 1817.4 528.9 1827 523.1 1837.55 516.85 1843.3 515.45 1849.2 514 1856.2 516 1867.75 519.05 1874.75 529 1881.8 539.05 1881.8 552.25 1881.8 565.5 1874.8 575.55 1867.75 585.5 1856.35 588.5 1849.55 590.45 1843.55 588.95 1837.55 587.5 1827.35 581.45 1812.95 573.1 1805.35 573.85 1797.75 574.6 1792.45 585 1788.15 593.4 1786.8 607.8 1785.45 622.05 1786.4 649.05 1787.65 682 1788.05 682.45 1788.4 683.1 1815.2 681.6 1867.05 679.3 1883.15 686.3 1895.3 691.45 1896.5 699.65 1897.65 707.8 1888.55 723.25 1883.5 731.75 1882.55 735.05 1881.65 738.3 1882.15 746 1882.8 756.1 1887.2 762.5 1891.7 768.85 1901.05 773.3 1913.15 779.05 1925.9 776.7 1938.55 774.3 1947.4 764.7 1951.1 760.65 1952.8 757.35 1954.55 754 1955.15 749.7 1956.35 742.1 1954.9 736.8 1953.4 731.5 1947.25 721.05 1932.9 696.85 1949.95 687.8 1966.85 678.8 2021.6 681.6 2047.65 682.85 2048.05 682.45 2048.55 681.9 2050.4 654.45 2053.1 614.75 2047.65 594.1 2042.05 573.35 2028.85 573.35 2027.5 573.35 2021.6 575.85 2015.75 578.4 2008.95 581.95 1997.8 587.6 1993.75 588.95 1989.8 590.2 1984.85 589.55 1973.95 588 1966.45 580.6 1958.85 573.15 1955.85 561.05 1954 553 1955.85 544.1 1957.7 535.05 1962.75 528 1967.05 522.1 1972.25 519.05 1977.4 516 1985 515 1989.7 514.4 1993.85 515.7 1997.8 516.95 2008.95 522.6 2015.75 526.15 2021.85 528.65 2027.9 531.2 2029.5 531.2 2033.55 531.2 2038.6 526.55 2043.65 521.9 2046.05 516 2049.55 507 2050.75 489.9 2052 472.6 2050.6 450.75
L 2048.75 423.3
Q 2048.75 422.45 2007.1 422.45 1972.85 422.45 1962.55 420.9 1952.35 419.4 1945.55 413.35 1939.75 408.1 1940.15 401.3 1940.65 394.3 1947.55 382.8 Z"/>
</g>
</defs>

<g transform="matrix( 1, 0, 0, 1, 0,0) ">
<use xlink:href="#Layer0_0_FILL"/>
</g>
</svg>
