
<svg xmlns="http://www.w3.org/2000/svg" version="1.1" xmlns:xlink="http://www.w3.org/1999/xlink" preserveAspectRatio="none" x="0px" y="0px" width="152px" height="152px" viewBox="0 0 152 152">
<defs>
<g id="___2_0_Layer0_0_FILL">
<path fill="#FFFFFF" stroke="none" d="
M 0 126.5
L 0 175.7 49.2 175.7 49.2 126.5 0 126.5
M 7.4 168.3
L 7.4 133.9 41.8 133.9 41.8 168.3 7.4 168.3
M 35.15 140.55
L 14.05 140.55 14.05 161.65 35.15 161.65 35.15 140.55
M 7.05 63.25
L 7.05 56.25 0 56.25 0 63.25 7.05 63.25
M 56.25 28.1
L 63.25 28.1 63.25 21.1 56.25 21.1 56.25 28.1
M 49.2 49.2
L 49.2 0 0 0 0 49.2 49.2 49.2
M 41.8 7.4
L 41.8 41.8 7.4 41.8 7.4 7.4 41.8 7.4
M 35.15 14.05
L 14.05 14.05 14.05 35.15 35.15 35.15 35.15 14.05
M 147.6 56.25
L 147.6 63.25 154.6 63.25 154.6 56.25 147.6 56.25
M 119.45 49.2
L 119.45 42.15 112.45 42.15 112.45 49.2 119.45 49.2
M 105.4 49.2
L 105.4 42.15 98.4 42.15 98.4 63.25 105.4 63.25 105.4 56.25 112.45 56.25 112.45 49.2 105.4 49.2
M 119.45 14.05
L 112.45 14.05 112.45 21.1 119.45 21.1 119.45 14.05
M 105.4 7.05
L 105.4 0 98.4 0 98.4 7.05 105.4 7.05
M 119.45 0
L 112.45 0 112.45 7.05 119.45 7.05 119.45 0
M 168.65 70.3
L 168.65 63.25 175.7 63.25 175.7 56.25 161.65 56.25 161.65 70.3 168.65 70.3
M 98.4 140.55
L 98.4 147.6 105.4 147.6 105.4 140.55 98.4 140.55
M 63.25 147.6
L 56.25 147.6 56.25 161.65 63.25 161.65 63.25 147.6
M 77.3 140.55
L 77.3 147.6 84.35 147.6 84.35 140.55 77.3 140.55
M 77.3 147.6
L 70.3 147.6 70.3 161.65 63.25 161.65 63.25 168.65 56.25 168.65 56.25 175.7 105.4 175.7 105.4 168.7 112.45 168.7 112.45 161.65 98.4 161.65 98.4 147.6 84.35 147.6 84.35 154.6 77.3 154.6 77.3 147.6
M 77.3 168.65
L 77.3 161.65 84.35 161.65 84.35 168.65 77.3 168.65
M 49.2 91.35
L 49.2 98.4 56.25 98.4 56.25 91.35 49.2 91.35
M 49.2 84.35
L 42.15 84.35 42.15 91.35 49.2 91.35 49.2 84.35
M 7.05 70.3
L 0 70.3 0 84.35 21.1 84.35 21.1 91.35 7.05 91.35 7.05 105.4 0 105.4 0 112.45 7.05 112.45 7.05 105.45 14.05 105.45 14.05 119.5 56.25 119.5 56.25 140.55 63.25 140.55 63.25 147.6 70.3 147.6 70.3 140.55 77.3 140.55 77.3 133.55 84.35 133.55 84.35 140.55 91.35 140.55 91.35 133.55 98.4 133.55 98.4 112.45 91.35 112.45 91.35 119.45 84.35 119.45 84.35 112.45 70.3 112.45 70.3 119.45 63.25 119.45 63.25 112.45 70.3 112.45 70.3 105.45 77.3 105.45 77.3 98.4 70.3 98.4 70.3 105.4 56.25 105.4 56.25 112.45 42.15 112.45 42.15 105.45 49.2 105.45 49.2 98.4 42.15 98.4 42.15 105.4 28.1 105.4 28.1 112.45 21.1 112.45 21.1 98.4 42.15 98.4 42.15 91.35 35.15 91.35 35.15 84.35 28.1 84.35 28.1 77.3 7.05 77.3 7.05 70.3
M 70.3 126.5
L 70.3 119.5 84.35 119.5 84.35 126.5 70.3 126.5
M 28.1 70.3
L 28.1 56.25 14.05 56.25 14.05 70.3 28.1 70.3
M 35.15 70.3
L 28.1 70.3 28.1 77.3 35.15 77.3 35.15 70.3
M 77.3 7.05
L 77.3 0 56.25 0 56.25 14.05 63.25 14.05 63.25 7.05 77.3 7.05
M 140.55 63.25
L 133.55 63.25 133.55 77.3 140.55 77.3 140.55 63.25
M 126.5 63.25
L 133.55 63.25 133.55 56.25 126.5 56.25 126.5 63.25
M 112.45 77.3
L 119.45 77.3 119.45 70.3 126.5 70.3 126.5 63.25 112.45 63.25 112.45 77.3
M 91.35 98.4
L 84.35 98.4 84.35 112.45 91.35 112.45 91.35 98.4
M 84.35 98.4
L 84.35 84.35 77.3 84.35 77.3 98.4 84.35 98.4
M 119.45 35.15
L 119.45 28.1 105.4 28.1 105.4 35.15 119.45 35.15
M 84.35 35.15
L 84.35 28.1 70.3 28.1 70.3 35.15 77.3 35.15 77.3 42.15 70.3 42.15 70.3 35.15 63.25 35.15 63.25 42.15 56.25 42.15 56.25 56.25 63.25 56.25 63.25 42.2 70.3 42.2 70.3 63.25 77.3 63.25 77.3 56.25 84.35 56.25 84.35 63.25 91.35 63.25 91.35 35.15 84.35 35.15
M 84.35 42.2
L 84.35 49.2 77.3 49.2 77.3 42.2 84.35 42.2
M 84.35 14.05
L 84.35 7.05 77.3 7.05 77.3 14.05 70.3 14.05 70.3 21.1 91.35 21.1 91.35 35.15 98.4 35.15 98.4 28.1 105.4 28.1 105.4 14.05 84.35 14.05
M 168.65 140.55
L 168.65 133.55 175.7 133.55 175.7 105.4 168.65 105.4 168.65 98.4 154.6 98.4 154.6 105.45 168.65 105.45 168.65 112.45 147.6 112.45 147.6 84.35 133.55 84.35 133.55 77.3 119.45 77.3 119.45 84.35 105.4 84.35 105.4 91.35 98.4 91.35 98.4 84.35 105.4 84.35 105.4 77.3 91.35 77.3 91.35 70.3 63.25 70.3 63.25 63.25 56.25 63.25 56.25 56.25 35.15 56.25 35.15 63.25 49.2 63.25 49.2 70.3 42.15 70.3 42.15 77.3 49.2 77.3 49.2 84.35 56.25 84.35 56.25 91.35 70.3 91.35 70.3 77.3 84.35 77.3 84.35 84.35 91.35 84.35 91.35 98.4 98.4 98.4 98.4 105.45 105.4 105.45 105.4 119.5 112.45 119.5 112.45 133.55 105.4 133.55 105.4 140.55 112.45 140.55 112.45 147.6 126.5 147.6 126.5 154.6 119.45 154.6 119.45 168.7 133.55 168.7 133.55 175.7 175.7 175.7 175.7 168.65 161.65 168.65 161.65 161.65 168.65 161.65 168.65 154.6 175.7 154.6 175.7 140.55 168.65 140.55 168.65 147.6 154.6 147.6 154.6 140.55 147.6 140.55 147.6 119.5 154.6 119.5 154.6 133.55 161.65 133.55 161.65 140.55 168.65 140.55
M 168.65 119.5
L 168.65 126.5 161.65 126.5 161.65 119.5 168.65 119.5
M 119.45 98.4
L 119.45 91.35 126.5 91.35 126.5 98.4 140.55 98.4 140.55 105.4 133.55 105.4 133.55 112.45 126.5 112.45 126.5 98.4 119.45 98.4 119.45 112.45 112.45 112.45 112.45 105.4 105.4 105.4 105.4 98.4 119.45 98.4
M 133.55 147.6
L 140.55 147.6 140.55 168.65 133.55 168.65 133.55 147.6
M 140.55 119.5
L 140.55 140.55 119.45 140.55 119.45 119.5 140.55 119.5
M 147.6 168.65
L 147.6 154.6 154.6 154.6 154.6 168.65 147.6 168.65
M 133.55 126.5
L 126.5 126.5 126.5 133.55 133.55 133.55 133.55 126.5
M 175.7 98.4
L 175.7 84.35 161.65 84.35 161.65 77.3 147.6 77.3 147.6 84.35 154.6 84.35 154.6 91.35 168.65 91.35 168.65 98.4 175.7 98.4
M 175.7 49.2
L 175.7 0 126.5 0 126.5 49.2 175.7 49.2
M 168.3 7.4
L 168.3 41.8 133.85 41.8 133.85 7.4 168.3 7.4
M 161.65 14.05
L 140.55 14.05 140.55 35.15 161.65 35.15 161.65 14.05 Z"/>
</g>
</defs>

<g transform="matrix( 0.8537139892578125, 0, 0, 0.8537139892578125, 1,1) ">
<g transform="matrix( 1, 0, 0, 1, 0,0) ">
<use xlink:href="#___2_0_Layer0_0_FILL"/>
</g>
</g>
</svg>
